HIERARCHY
ROOT mixamorig:Hips
{
	OFFSET 0.000000 102.625267 -0.521241
	CHANNELS 6 Xposition Yposition Zposition Xrotation Yrotation Zrotation
	JOINT mixamorig:Spine
	{
		OFFSET 0.000000 5.645721 -0.031929
		CHANNELS 3 Xrotation Yrotation Zrotation
		JOINT mixamorig:Spine1
		{
			OFFSET 0.000000 6.586685 -0.037251
			CHANNELS 3 Xrotation Yrotation Zrotation
			JOINT mixamorig:Spine2
			{
				OFFSET 0.000000 7.527618 -0.042572
				CHANNELS 3 Xrotation Yrotation Zrotation
				JOINT mixamorig:Neck
				{
					OFFSET 0.000000 8.468590 -0.047894
					CHANNELS 3 Xrotation Yrotation Zrotation
					JOINT mixamorig:Head
					{
						OFFSET 0.000000 5.998901 -1.158958
						CHANNELS 3 Xrotation Yrotation Zrotation
						JOINT mixamorig:HeadTop_End
						{
							OFFSET 0.000000 21.748810 -4.201760
							CHANNELS 3 Xrotation Yrotation Zrotation
							End Site
							{
								OFFSET 0.000000 22.150970 0.000000
							}
						}
					}
				}
				JOINT mixamorig:LeftShoulder
				{
					OFFSET 3.414614 7.343132 -0.058928
					CHANNELS 3 Xrotation Yrotation Zrotation
					JOINT mixamorig:LeftArm
					{
						OFFSET 6.829548 -2.246910 -0.022071
						CHANNELS 3 Xrotation Yrotation Zrotation
						JOINT mixamorig:LeftForeArm
						{
							OFFSET 24.198503 -0.424179 0.257802
							CHANNELS 3 Xrotation Yrotation Zrotation
							JOINT mixamorig:LeftHand
							{
								OFFSET 21.584717 -0.002335 0.669575
								CHANNELS 3 Xrotation Yrotation Zrotation
								JOINT mixamorig:LeftHandThumb1
								{
									OFFSET 2.193897 -1.259628 1.956942
									CHANNELS 3 Xrotation Yrotation Zrotation
									JOINT mixamorig:LeftHandThumb2
									{
										OFFSET 1.755203 -1.007660 1.565605
										CHANNELS 3 Xrotation Yrotation Zrotation
										JOINT mixamorig:LeftHandThumb3
										{
											OFFSET 2.535126 -0.998764 1.490660
											CHANNELS 3 Xrotation Yrotation Zrotation
											JOINT mixamorig:LeftHandThumb4
											{
												OFFSET 2.398251 -0.721657 1.023775
												CHANNELS 3 Xrotation Yrotation Zrotation
												End Site
												{
													OFFSET 2.205696 -0.773872 1.362551
												}
											}
										}
									}
								}
								JOINT mixamorig:LeftHandIndex1
								{
									OFFSET 7.166248 -0.069405 2.369028
									CHANNELS 3 Xrotation Yrotation Zrotation
									JOINT mixamorig:LeftHandIndex2
									{
										OFFSET 2.989986 -0.015724 0.245918
										CHANNELS 3 Xrotation Yrotation Zrotation
										JOINT mixamorig:LeftHandIndex3
										{
											OFFSET 2.739197 -0.058952 0.219132
											CHANNELS 3 Xrotation Yrotation Zrotation
											JOINT mixamorig:LeftHandIndex4
											{
												OFFSET 2.326500 -0.032570 0.188458
												CHANNELS 3 Xrotation Yrotation Zrotation
												End Site
												{
													OFFSET 2.326485 -0.032578 0.188548
												}
											}
										}
									}
								}
								JOINT mixamorig:LeftHandMiddle1
								{
									OFFSET 7.394897 0.286369 0.654762
									CHANNELS 3 Xrotation Yrotation Zrotation
									JOINT mixamorig:LeftHandMiddle2
									{
										OFFSET 3.376106 0.152466 -0.003692
										CHANNELS 3 Xrotation Yrotation Zrotation
										JOINT mixamorig:LeftHandMiddle3
										{
											OFFSET 3.185104 -0.185410 -0.047914
											CHANNELS 3 Xrotation Yrotation Zrotation
											JOINT mixamorig:LeftHandMiddle4
											{
												OFFSET 2.742905 0.223846 0.010354
												CHANNELS 3 Xrotation Yrotation Zrotation
												End Site
												{
													OFFSET 2.742889 0.224251 0.006757
												}
											}
										}
									}
								}
								JOINT mixamorig:LeftHandRing1
								{
									OFFSET 7.508747 0.282753 -1.072900
									CHANNELS 3 Xrotation Yrotation Zrotation
									JOINT mixamorig:LeftHandRing2
									{
										OFFSET 2.821857 0.317802 -0.177266
										CHANNELS 3 Xrotation Yrotation Zrotation
										JOINT mixamorig:LeftHandRing3
										{
											OFFSET 2.672325 0.088310 -0.196165
											CHANNELS 3 Xrotation Yrotation Zrotation
											JOINT mixamorig:LeftHandRing4
											{
												OFFSET 2.272652 -0.053627 -0.183955
												CHANNELS 3 Xrotation Yrotation Zrotation
												End Site
												{
													OFFSET 2.272919 -0.054016 -0.180438
												}
											}
										}
									}
								}
								JOINT mixamorig:LeftHandPinky1
								{
									OFFSET 7.285820 0.522377 -2.660948
									CHANNELS 3 Xrotation Yrotation Zrotation
									JOINT mixamorig:LeftHandPinky2
									{
										OFFSET 2.466278 0.082008 -0.249570
										CHANNELS 3 Xrotation Yrotation Zrotation
										JOINT mixamorig:LeftHandPinky3
										{
											OFFSET 1.940475 0.021858 -0.202004
											CHANNELS 3 Xrotation Yrotation Zrotation
											JOINT mixamorig:LeftHandPinky4
											{
												OFFSET 1.645287 0.153595 -0.153405
												CHANNELS 3 Xrotation Yrotation Zrotation
												End Site
												{
													OFFSET 1.645088 0.153801 -0.155289
												}
											}
										}
									}
								}
							}
						}
					}
				}
				JOINT mixamorig:RightShoulder
				{
					OFFSET -3.414604 7.343132 -0.036860
					CHANNELS 3 Xrotation Yrotation Zrotation
					JOINT mixamorig:RightArm
					{
						OFFSET -6.829551 -2.246986 0.022068
						CHANNELS 3 Xrotation Yrotation Zrotation
						JOINT mixamorig:RightForeArm
						{
							OFFSET -24.198494 -0.424141 0.158696
							CHANNELS 3 Xrotation Yrotation Zrotation
							JOINT mixamorig:RightHand
							{
								OFFSET -21.584698 -0.002243 0.686977
								CHANNELS 3 Xrotation Yrotation Zrotation
								JOINT mixamorig:RightHandThumb1
								{
									OFFSET -2.242882 -1.296806 1.978855
									CHANNELS 3 Xrotation Yrotation Zrotation
									JOINT mixamorig:RightHandThumb2
									{
										OFFSET -1.794239 -1.037361 1.583064
										CHANNELS 3 Xrotation Yrotation Zrotation
										JOINT mixamorig:RightHandThumb3
										{
											OFFSET -2.504150 -0.962166 1.471556
											CHANNELS 3 Xrotation Yrotation Zrotation
											JOINT mixamorig:RightHandThumb4
											{
												OFFSET -2.346046 -0.743172 0.992235
												CHANNELS 3 Xrotation Yrotation Zrotation
												End Site
												{
													OFFSET -2.157112 -0.792709 1.326359
												}
											}
										}
									}
								}
								JOINT mixamorig:RightHandIndex1
								{
									OFFSET -7.174488 -0.001839 2.366265
									CHANNELS 3 Xrotation Yrotation Zrotation
									JOINT mixamorig:RightHandIndex2
									{
										OFFSET -2.935219 -0.016853 0.287245
										CHANNELS 3 Xrotation Yrotation Zrotation
										JOINT mixamorig:RightHandIndex3
										{
											OFFSET -2.786827 -0.129890 0.255971
											CHANNELS 3 Xrotation Yrotation Zrotation
											JOINT mixamorig:RightHandIndex4
											{
												OFFSET -2.343559 0.168816 0.256164
												CHANNELS 3 Xrotation Yrotation Zrotation
												End Site
												{
													OFFSET -2.344208 0.169510 0.249690
												}
											}
										}
									}
								}
								JOINT mixamorig:RightHandMiddle1
								{
									OFFSET -7.274693 0.327965 0.656181
									CHANNELS 3 Xrotation Yrotation Zrotation
									JOINT mixamorig:RightHandMiddle2
									{
										OFFSET -3.309677 0.091591 0.032863
										CHANNELS 3 Xrotation Yrotation Zrotation
										JOINT mixamorig:RightHandMiddle3
										{
											OFFSET -3.186844 -0.122513 0.000971
											CHANNELS 3 Xrotation Yrotation Zrotation
											JOINT mixamorig:RightHandMiddle4
											{
												OFFSET -2.671951 -0.322540 -0.031001
												CHANNELS 3 Xrotation Yrotation Zrotation
												End Site
												{
													OFFSET -2.671928 -0.323486 -0.021820
												}
											}
										}
									}
								}
								JOINT mixamorig:RightHandRing1
								{
									OFFSET -7.453640 0.430428 -1.170334
									CHANNELS 3 Xrotation Yrotation Zrotation
									JOINT mixamorig:RightHandRing2
									{
										OFFSET -2.808174 0.165817 -0.117934
										CHANNELS 3 Xrotation Yrotation Zrotation
										JOINT mixamorig:RightHandRing3
										{
											OFFSET -2.730080 0.127754 -0.119542
											CHANNELS 3 Xrotation Yrotation Zrotation
											JOINT mixamorig:RightHandRing4
											{
												OFFSET -2.349426 0.078133 -0.107466
												CHANNELS 3 Xrotation Yrotation Zrotation
												End Site
												{
													OFFSET -2.349503 0.077988 -0.106043
												}
											}
										}
									}
								}
								JOINT mixamorig:RightHandPinky1
								{
									OFFSET -7.364456 0.463486 -2.604800
									CHANNELS 3 Xrotation Yrotation Zrotation
									JOINT mixamorig:RightHandPinky2
									{
										OFFSET -2.430134 0.174614 -0.251330
										CHANNELS 3 Xrotation Yrotation Zrotation
										JOINT mixamorig:RightHandPinky3
										{
											OFFSET -1.953583 0.007492 -0.220999
											CHANNELS 3 Xrotation Yrotation Zrotation
											JOINT mixamorig:RightHandPinky4
											{
												OFFSET -1.582039 0.276558 -0.139972
												CHANNELS 3 Xrotation Yrotation Zrotation
												End Site
												{
													OFFSET -1.581284 0.277252 -0.147002
												}
											}
										}
									}
								}
							}
						}
					}
				}
			}
		}
	}
	JOINT mixamorig:LeftUpLeg
	{
		OFFSET 6.620181 -8.816864 -0.447179
		CHANNELS 3 Xrotation Yrotation Zrotation
		JOINT mixamorig:LeftLeg
		{
			OFFSET 2.748989 -36.076775 0.650871
			CHANNELS 3 Xrotation Yrotation Zrotation
			JOINT mixamorig:LeftFoot
			{
				OFFSET 1.089303 -46.239017 1.019056
				CHANNELS 3 Xrotation Yrotation Zrotation
				JOINT mixamorig:LeftToeBase
				{
					OFFSET -0.371088 -10.380511 12.650617
					CHANNELS 3 Xrotation Yrotation Zrotation
					JOINT mixamorig:LeftToe_End
					{
						OFFSET -0.094684 -0.116785 6.663326
						CHANNELS 3 Xrotation Yrotation Zrotation
						End Site
						{
							OFFSET -0.094684 -0.116785 6.663326
						}
					}
				}
			}
		}
	}
	JOINT mixamorig:RightUpLeg
	{
		OFFSET -6.620174 -8.816818 -0.447182
		CHANNELS 3 Xrotation Yrotation Zrotation
		JOINT mixamorig:RightLeg
		{
			OFFSET -2.748991 -36.076790 0.753614
			CHANNELS 3 Xrotation Yrotation Zrotation
			JOINT mixamorig:RightFoot
			{
				OFFSET -1.089311 -46.239029 0.372114
				CHANNELS 3 Xrotation Yrotation Zrotation
				JOINT mixamorig:RightToeBase
				{
					OFFSET 0.371103 -10.380659 13.284531
					CHANNELS 3 Xrotation Yrotation Zrotation
					JOINT mixamorig:RightToe_End
					{
						OFFSET 0.094689 -0.116865 6.675873
						CHANNELS 3 Xrotation Yrotation Zrotation
						End Site
						{
							OFFSET 0.094687 -0.116865 6.675871
						}
					}
				}
			}
		}
	}
}
MOTION
Frames: 5
Frame Time: 0.016667
74.157784 94.079941 35.887756 -1.213393 -42.793423 -199.907889 2.314411 -13.107129 -7.056104 -1.517948 -3.039231 -6.675970 -1.580116 -2.606183 -6.861662 -13.490903 -1.279798 -4.238844 -48.813849 -29.031948 -16.772790 0.000000 0.000001 -0.000000 4.497675 -16.632334 12.705720 -51.554551 -53.783614 -11.186346 181.971211 -63.447130 182.216388 26.135031 -32.959303 -5.631510 -73.504665 53.148980 -23.227737 -22.007062 15.038560 33.714521 -16.356254 -17.695823 12.722432 0.000001 0.000005 -0.000002 6.821092 -2.662215 -36.890583 4.608130 5.904424 -33.195218 2.639237 4.122387 -21.755688 -0.000000 -0.000000 -0.000001 2.694827 5.184316 -44.638244 4.401047 9.784219 -51.888882 4.063837 9.101626 -52.656227 0.000000 -0.000000 0.000002 0.080058 3.818815 -60.749130 1.387658 11.984914 -57.309877 0.374952 9.801046 -46.205014 0.000001 -0.000001 -0.000001 -3.482381 3.678400 -66.629882 0.477885 13.071588 -58.835680 2.092285 15.245915 -72.363129 0.000001 -0.000000 -0.000003 -5.964036 -7.867885 -22.289832 -103.855144 -16.757963 37.769805 -0.758133 37.906648 1.252323 54.758153 -2.015973 -75.855077 -59.599459 -4.044291 15.461839 2.552642 -8.048206 -0.592888 -8.314464 11.516833 -11.502662 -0.000003 0.000000 0.000001 1.063273 6.124923 -18.010685 0.403312 -0.722665 3.796757 -0.258293 0.700168 -2.825103 0.000000 0.000001 -0.000000 -0.144762 3.468953 -18.867399 0.011359 -0.312549 1.232336 0.037754 -0.507830 2.218843 0.000000 0.000000 -0.000001 -0.021304 3.240634 -14.796900 -0.033409 -0.122796 0.643926 -0.220290 -0.868966 4.993926 0.000000 0.000001 -0.000000 -2.821470 2.721241 -15.755754 0.295850 0.328884 -2.547869 -1.501940 -2.748297 16.449761 -0.000001 -0.000000 0.000001 -57.838035 -5.303707 47.466970 1.070155 7.957349 8.094256 -16.320744 16.305835 4.273106 20.032417 -0.000049 -0.000014 0.000003 0.000000 -0.000000 9.860443 -0.102174 -20.487578 90.187314 2.681659 -2.865320 51.337720 7.276172 12.669396 7.738790 -0.000012 -0.000011 -0.000002 0.000000 0.000002 
74.629753 93.847534 36.086285 -0.915960 -42.684523 -199.972639 2.182479 -13.824533 -7.640986 -1.670253 -3.215811 -6.641731 -1.736131 -2.785285 -6.832913 -13.218247 -1.234662 -4.330677 -48.465247 -29.140623 -15.076640 0.000000 0.000002 -0.000000 4.614905 -16.598992 13.056507 -48.629434 -53.120683 -8.731753 181.846219 -61.922755 182.105848 26.954679 -32.608962 -5.711251 -73.655483 53.007705 -22.866256 -23.061900 16.029175 34.582358 -16.364124 -18.217928 12.347496 0.000003 0.000004 0.000003 6.898890 -2.567363 -38.089219 4.756879 6.006974 -33.997007 2.676918 4.162106 -21.997456 -0.000001 -0.000000 -0.000001 2.960227 5.499981 -46.221990 4.607760 9.944927 -53.171821 4.205705 9.221351 -53.563604 0.000002 -0.000000 0.000001 0.266269 4.190337 -62.572326 1.566399 12.223610 -58.720830 0.474597 10.003366 -47.273030 0.000001 -0.000000 0.000001 -3.700257 3.872489 -67.927208 0.701334 13.414012 -60.635694 2.288174 15.439364 -73.567264 0.000001 0.000000 -0.000002 -6.055324 -7.942231 -22.159289 -103.037003 -16.825169 39.380402 -0.707849 36.056634 1.222605 54.085031 -1.747689 -77.415297 -59.609055 -4.057813 15.488451 2.552544 -8.038699 -0.591115 -8.313553 11.519485 -11.502889 0.000002 -0.000001 0.000001 1.068178 6.130888 -18.085241 0.403306 -0.722678 3.796762 -0.258286 0.700170 -2.825108 0.000001 0.000001 -0.000001 -0.143346 3.472743 -18.867139 0.011357 -0.312566 1.232416 0.037757 -0.507821 2.218844 0.000001 0.000001 -0.000001 -0.018987 3.259861 -14.890673 -0.033417 -0.122828 0.644187 -0.220296 -0.868957 4.993967 0.000000 0.000000 -0.000000 -2.822949 2.723492 -15.755713 0.295842 0.328859 -2.547883 -1.501931 -2.748292 16.449764 0.000000 -0.000000 0.000001 -57.959735 -5.190438 48.387796 0.726750 8.241261 7.880799 -17.063110 16.591040 5.738791 19.985723 -0.000020 0.000003 -0.000003 -0.000000 0.000001 8.618155 -0.186238 -20.461985 90.985421 2.649237 -2.447053 54.405906 5.950518 14.171175 7.902222 -0.000023 -0.000012 -0.000003 -0.000002 0.000001 
74.981865 93.748795 36.221703 -0.326734 -42.729107 -199.848507 2.436277 -14.156858 -8.098059 -1.736340 -3.273608 -6.542650 -1.798166 -2.853363 -6.731595 -13.018555 -1.212948 -4.434698 -48.559834 -29.134322 -13.938560 -0.000000 0.000000 -0.000000 4.741732 -16.551784 13.453001 -45.970093 -52.367395 -6.494556 181.752345 -60.668008 182.023886 27.795238 -32.190094 -5.627552 -73.802031 52.867481 -22.518505 -24.058122 16.912337 35.403606 -16.375713 -18.701924 12.006257 0.000003 0.000003 -0.000000 6.971421 -2.480562 -39.179994 4.893133 6.098237 -34.724938 2.710878 4.197622 -22.214533 -0.000000 -0.000003 0.000001 3.211825 5.780253 -47.666777 4.798215 10.086557 -54.335039 4.335906 9.327861 -54.386003 0.000003 -0.000000 0.000001 0.446481 4.523905 -64.233619 1.733632 12.436053 -60.000732 0.568202 10.185047 -48.241548 0.000000 -0.000000 -0.000000 -3.900000 4.057559 -69.099036 0.914325 13.719249 -62.275561 2.468094 15.609890 -74.651857 0.000000 0.000001 -0.000002 -6.100200 -7.964695 -22.349665 -102.702761 -17.085317 40.045420 -0.673068 34.724654 1.202883 53.772857 -1.459026 -78.388025 -59.606426 -4.057679 15.489071 2.552575 -8.038818 -0.591035 -8.312753 11.520986 -11.503391 0.000000 -0.000001 0.000001 1.070681 6.133102 -18.117471 0.403315 -0.722678 3.796767 -0.258289 0.700178 -2.825115 -0.000000 -0.000000 -0.000001 -0.142786 3.474268 -18.867055 0.011361 -0.312596 1.232499 0.037755 -0.507812 2.218857 0.000001 -0.000001 -0.000001 -0.017588 3.268761 -14.926168 -0.033433 -0.122889 0.644460 -0.220297 -0.868972 4.994003 -0.000000 0.000000 0.000001 -2.830806 2.727831 -15.756053 0.295845 0.328869 -2.547867 -1.501932 -2.748279 16.449764 0.000001 -0.000001 -0.000001 -57.872302 -4.740933 49.056990 0.407493 8.500164 7.554115 -17.818579 16.709820 6.874503 19.553706 -0.000016 -0.000008 -0.000001 0.000000 -0.000001 7.128689 -0.533825 -20.556796 92.124430 1.841472 -1.941390 54.526240 5.586121 15.011033 7.025384 -0.000003 0.000008 -0.000005 -0.000001 0.000003 
75.165932 93.736572 36.446617 0.111002 -42.910008 -199.671414 2.877824 -14.048087 -8.359534 -1.735350 -3.206575 -6.419235 -1.787339 -2.800330 -6.599712 -12.952237 -1.223472 -4.514354 -48.981435 -29.051243 -13.952858 0.000000 -0.000001 -0.000000 4.789807 -16.460838 13.604252 -44.313209 -51.850247 -5.206445 181.697785 -59.890534 181.976744 28.447787 -31.763115 -5.382556 -73.941927 52.731229 -22.189239 -24.984168 17.692615 36.166371 -16.389223 -19.145985 11.702247 -0.000002 0.000001 0.000001 7.038132 -2.401693 -40.162216 5.016500 6.178727 -35.378983 2.741198 4.229099 -22.407479 -0.000001 0.000000 0.000001 3.446481 6.026736 -48.970841 4.971500 10.210252 -55.378781 4.453976 9.421768 -55.123701 0.000000 -0.000000 0.000003 0.617531 4.820353 -65.731541 1.887766 12.623380 -61.149680 0.654846 10.346636 -49.110744 0.000000 0.000000 0.000000 -4.080969 4.231052 -70.146917 1.113766 13.988710 -63.753785 2.630614 15.758392 -75.615119 0.000000 -0.000001 -0.000000 -6.141178 -7.981149 -22.420953 -102.676868 -17.283975 39.678918 -0.684696 35.175266 1.209423 53.873370 -1.614483 -77.945381 -59.605490 -4.056989 15.490247 2.552562 -8.038807 -0.590890 -8.312026 11.522190 -11.503870 0.000000 -0.000001 -0.000001 1.072274 6.133828 -18.132257 0.403309 -0.722665 3.796760 -0.258285 0.700178 -2.825106 -0.000001 -0.000000 -0.000001 -0.142490 3.475056 -18.867033 0.011356 -0.312596 1.232575 0.037755 -0.507801 2.218860 0.000000 -0.000001 0.000000 -0.016558 3.274024 -14.942144 -0.033445 -0.122913 0.644723 -0.220296 -0.868979 4.994052 -0.000001 -0.000000 0.000000 -2.834070 2.729917 -15.756179 0.295838 0.328865 -2.547860 -1.501930 -2.748283 16.449751 -0.000002 -0.000000 0.000000 -58.086818 -5.368696 49.121010 2.477703 9.152053 7.521700 -19.671414 16.353358 7.281578 19.539052 -0.000012 0.000012 0.000001 -0.000001 -0.000001 5.573126 -1.398598 -20.721496 93.167072 1.682854 -1.336943 53.179303 5.423620 15.019093 5.258360 -0.000007 -0.000004 -0.000001 0.000001 0.000003 
75.291557 93.758484 36.656467 0.521373 -43.084242 -199.498870 3.290036 -13.727000 -8.490143 -1.712758 -3.105355 -6.300841 -1.753777 -2.713261 -6.471688 -12.951213 -1.246013 -4.559198 -49.417798 -28.939648 -14.445140 -0.000001 -0.000002 -0.000000 4.825878 -16.363117 13.720688 -42.833274 -51.356227 -4.091363 181.650028 -59.179785 181.935804 29.056813 -31.358683 -5.135859 -74.072787 52.601954 -21.883434 -25.829591 18.374346 36.860905 -16.403130 -19.547955 11.437118 0.000002 0.000003 -0.000002 7.098333 -2.330771 -41.035370 5.126680 6.248928 -35.959098 2.767904 4.256629 -22.576876 -0.000001 -0.000001 0.000001 3.661476 6.240910 -50.132475 5.126830 10.317150 -56.303339 4.559498 9.503640 -55.777008 0.000001 0.000000 0.000000 0.776551 5.080526 -67.064651 2.027494 12.786661 -62.167931 0.733634 10.488579 -49.880851 0.000001 -0.000001 0.000000 -4.242637 4.390599 -71.072298 1.297093 14.223783 -65.069129 2.774377 15.885633 -76.455341 0.000001 0.000000 -0.000001 -6.165881 -7.973992 -22.507387 -102.721339 -17.442503 39.133825 -0.708437 36.078654 1.222972 54.177890 -1.951877 -77.167867 -59.604786 -4.056435 15.491485 2.552530 -8.038781 -0.590791 -8.311413 11.523179 -11.504357 -0.000000 -0.000003 0.000000 1.072715 6.132305 -18.130908 0.403309 -0.722672 3.796774 -0.258292 0.700166 -2.825115 -0.000001 0.000000 -0.000000 -0.142478 3.475093 -18.867090 0.011358 -0.312606 1.232659 0.037759 -0.507822 2.218853 -0.000000 0.000000 -0.000001 -0.016016 3.275455 -14.939972 -0.033460 -0.122965 0.644993 -0.220296 -0.868997 4.994096 -0.000000 0.000000 0.000001 -2.833282 2.729682 -15.756152 0.295844 0.328872 -2.547881 -1.501929 -2.748287 16.449773 0.000000 -0.000000 -0.000002 -57.235544 -4.677991 49.106823 1.839308 9.270587 7.553718 -20.298313 15.681867 7.701999 19.682093 -0.000026 -0.000001 0.000001 0.000001 -0.000000 3.735936 -2.591853 -20.994186 94.052388 1.910360 -0.729004 51.158674 5.234703 15.159434 2.751013 0.000003 0.000006 0.000004 0.000000 -0.000002 
